<svg width="437" height="437" viewBox="0 0 437 437" fill="none" xmlns="http://www.w3.org/2000/svg">
<rect width="437" height="437" fill="#7E34A1"/>
<path d="M216.902 356.601L213.123 359.876L216.861 364.189L220.645 359.916L216.902 356.601ZM138.74 104.215V99.2151H136.728L135.277 100.609L138.74 104.215ZM298.579 104.215L302.047 100.613L300.595 99.2151H298.579V104.215ZM375.142 177.901L378.886 181.216L382.066 177.625L378.609 174.298L375.142 177.901ZM62.0176 177.901L58.5541 174.295L55.1276 177.586L58.2392 181.176L62.0176 177.901ZM217.381 104.215L220.741 100.512L213.962 100.566L217.381 104.215ZM139.46 267.251L143.238 263.976L139.46 267.251ZM338.379 177.901V172.901V177.901ZM134.159 179.905L212.321 358.605L221.483 354.597L143.321 175.897L134.159 179.905ZM221.449 358.679L303.127 179.979L294.032 175.822L212.354 354.522L221.449 358.679ZM138.74 109.215H298.579V99.2151H138.74V109.215ZM293.579 104.215V177.901H303.579V104.215H293.579ZM298.579 172.901H138.74V182.901H298.579V172.901ZM143.74 177.901V104.215H133.74V177.901H143.74ZM378.609 174.298L302.047 100.613L295.112 107.818L371.675 181.503L378.609 174.298ZM221.902 356.601V177.901H211.902V356.601H221.902ZM371.399 174.586L213.158 353.286L220.645 359.916L378.886 181.216L371.399 174.586ZM142.159 181.549L220.8 107.864L213.962 100.566L135.322 174.252L142.159 181.549ZM214.021 107.918L295.219 181.604L301.939 174.198L220.741 100.512L214.021 107.918ZM138.74 172.901L100.379 172.901L100.379 182.901L138.74 182.901V172.901ZM100.379 172.901L62.0176 172.901L62.0176 182.901L100.379 182.901L100.379 172.901ZM65.481 181.507L103.842 144.664L96.9155 137.452L58.5541 174.295L65.481 181.507ZM103.842 144.664L142.204 107.821L135.277 100.609L96.9155 137.452L103.842 144.664ZM58.2392 181.176L135.681 270.526L143.238 263.976L65.7959 174.626L58.2392 181.176ZM135.681 270.526L213.123 359.876L220.68 353.326L143.238 263.976L135.681 270.526ZM298.579 182.901L338.379 182.901V172.901L298.579 172.901V182.901ZM338.379 182.901H375.142V172.901H338.379V182.901Z" fill="url(#paint0_linear)"/>
<defs>
<linearGradient id="paint0_linear" x1="219" y1="104" x2="219" y2="367" gradientUnits="userSpaceOnUse">
<stop stop-color="#FE05A9"/>
<stop offset="1" stop-color="#FBB03B"/>
</linearGradient>
</defs>
</svg>
